<?xml version="1.0" encoding="UTF-8"?>
<svg version="1.1" xmlns="http://www.w3.org/2000/svg" width="1000" height="1000">
<path d="M0 0 C2.18096019 2.18096019 2.41736914 3.10554845 3.1875 6 C5.39769989 12.95595904 9.71433024 18.94051932 14.9375 24 C15.618125 24.66 16.29875 25.32 17 26 C17 26.66 17 27.32 17 28 C17.57234375 28.26554688 18.1446875 28.53109375 18.734375 28.8046875 C21.10910265 30.05756105 23.10466889 31.51225109 25.25 33.125 C29.69121733 36.27470606 34.26552332 38.82478421 39.125 41.25 C39.78145508 41.57887207 40.43791016 41.90774414 41.11425781 42.24658203 C48.26682642 45.74430592 54.8903885 48.93061116 63 48 C67.43662788 45.51115997 70.0305292 41.41651235 73.05859375 37.43359375 C81.91914027 26.32671149 93.44354017 17.55555832 107 13 C121.44501929 14.11776935 135.95928355 29.13314912 145 39 C146.68986438 41.12629629 148.29833188 43.27113646 149.84375 45.50390625 C150.94602773 47.15394397 150.94602773 47.15394397 153 48 C167.43274883 48.84178281 182.62887933 39.74134496 193.6484375 30.8671875 C194.98387685 29.67638057 196.29997274 28.46294045 197.58203125 27.21484375 C199 26 199 26 201 26 C201.37125 25.13375 201.37125 25.13375 201.75 24.25 C203.16599656 21.70120619 204.94723215 20.05276785 207 18 C207.33 17.01 207.66 16.02 208 15 C208.66 15 209.32 15 210 15 C210.37125 13.515 210.37125 13.515 210.75 12 C211.95812141 7.71904804 213.90821294 3.90940785 216 0 C218.31243792 -0.02685412 220.6249627 -0.04632841 222.9375 -0.0625 C224.22527344 -0.07410156 225.51304687 -0.08570313 226.83984375 -0.09765625 C230 0 230 0 231 1 C231.09785121 3.70592245 231.1299368 6.38631176 231.12025452 9.09266663 C231.12153615 10.38026726 231.12153615 10.38026726 231.12284368 11.69388002 C231.12450112 14.5928971 231.11897282 17.49185732 231.11352539 20.39086914 C231.11324355 22.45995584 231.11340119 24.52904263 231.1139679 26.59812927 C231.11425599 32.23426263 231.10835733 37.87037491 231.10139394 43.50650334 C231.09516239 49.38954262 231.09455676 55.27258232 231.09336853 61.15562439 C231.09025462 72.30454228 231.08204044 83.45345042 231.07201904 94.602364 C231.06085974 107.29138268 231.05534792 119.98040182 231.05032361 132.66942418 C231.03985787 158.77962153 231.02225729 184.88981022 231 211 C188.55251726 211.06864098 146.10504092 211.121516 103.6575137 211.15319599 C98.64814055 211.15694819 93.63876752 211.16083114 88.62939453 211.16479492 C87.13345732 211.16597532 87.13345732 211.16597532 85.60729916 211.16717956 C69.45148596 211.18023957 53.29570473 211.20389668 37.1399105 211.23145839 C20.56712166 211.25949604 3.99434958 211.27617279 -12.578462 211.28226548 C-22.80780687 211.28638533 -33.03706139 211.29940555 -43.26637845 211.3237494 C-50.27749638 211.33958634 -57.28856748 211.34440499 -64.299702 211.34050413 C-68.34698987 211.3385794 -72.39411966 211.34156535 -76.44137955 211.35761642 C-80.14632432 211.3722028 -83.85100452 211.3729607 -87.55596142 211.36269668 C-89.5318876 211.36082663 -91.50781063 211.37377673 -93.48369181 211.38724393 C-104.1707925 211.33293426 -104.1707925 211.33293426 -109 208 C-109.77341264 207.54042278 -110.54682528 207.08084557 -111.34367466 206.60734177 C-113 205 -113 205 -113.50057125 202.83879471 C-113.50078053 201.99522793 -113.50098982 201.15166115 -113.50120544 200.28253174 C-113.51103958 199.31248199 -113.52087372 198.34243225 -113.53100586 197.34298706 C-113.52133789 196.28008453 -113.51166992 195.21718201 -113.50170898 194.12207031 C-113.50711197 193.0014621 -113.51251495 191.88085388 -113.51808167 190.72628784 C-113.53062082 187.00996743 -113.51403838 183.29441412 -113.49609375 179.578125 C-113.49624866 176.99843302 -113.4977363 174.4187408 -113.50050354 171.83905029 C-113.50189002 166.42513924 -113.48972424 161.01151192 -113.46655273 155.59765625 C-113.43999563 149.34977989 -113.43817817 143.10227516 -113.4499411 136.85436177 C-113.4607484 130.83633109 -113.45440399 124.81846981 -113.44038582 118.80043793 C-113.43587269 116.2440098 -113.4355333 113.68757077 -113.43945122 111.13114166 C-113.44236723 107.55237078 -113.42583448 103.9742025 -113.40405273 100.39550781 C-113.40855438 99.34070221 -113.41305603 98.28589661 -113.41769409 97.1991272 C-113.35827086 91.31160506 -112.69745723 87.2413266 -110 82 C-109.38872157 79.98744346 -108.80497613 77.96630424 -108.25 75.9375 C-103.41636738 60.05556423 -93.46145908 43.21531317 -81 32 C-80.34 32 -79.68 32 -79 32 C-79 31.34 -79 30.68 -79 30 C-73.52380952 25 -73.52380952 25 -71 25 C-71 24.34 -71 23.68 -71 23 C-69.68 22.67 -68.36 22.34 -67 22 C-67 21.34 -67 20.68 -67 20 C-64.48911839 18.28250834 -61.99909729 16.71538107 -59.375 15.1875 C-58.60462402 14.73753662 -57.83424805 14.28757324 -57.04052734 13.82397461 C-50.24999529 9.96116834 -43.50268982 7.22978845 -36 5 C-35.03449219 4.70609375 -34.06898438 4.4121875 -33.07421875 4.109375 C-22.21197955 0.97515039 -11.35838422 -1.05084371 0 0 Z " fill="#002562" transform="translate(270,597)"/>
<path d="M0 0 C105.6 0 211.2 0 320 0 C320 76.89 320 153.78 320 233 C319.34 233 318.68 233 318 233 C317.835 233.680625 317.67 234.36125 317.5 235.0625 C314.80863334 240.33309303 309.85741024 243.7617265 305 247 C302.76791602 247.24839699 302.76791602 247.24839699 300.10181904 247.24609566 C299.08566118 247.25007775 298.06950331 247.25405985 297.02255279 247.25816262 C295.90291631 247.25233693 294.78327983 247.24651125 293.62971497 247.24050903 C292.44292151 247.24221788 291.25612805 247.24392673 290.03337115 247.24568737 C286.73360472 247.24841779 283.4340741 247.24214555 280.13433611 247.23213124 C276.57811838 247.22351141 273.02190822 247.22641586 269.46568298 247.22793579 C263.30243509 247.22898557 257.13922947 247.22269925 250.9759922 247.21146011 C242.0649417 247.19522069 233.15391169 247.18999871 224.242848 247.18748413 C209.78599189 247.18310458 195.32915832 247.16978842 180.87231445 247.15087891 C166.82706821 247.13252684 152.78182808 247.11836704 138.73657227 247.10986328 C137.87113172 247.10933783 137.00569117 247.10881239 136.11402515 247.10827102 C131.77245643 247.10566098 127.43088767 247.10313356 123.08931887 247.10064721 C87.05953 247.07990661 51.02976675 247.044674 15 247 C15 246.34 15 245.68 15 245 C13.9171875 244.6596875 13.9171875 244.6596875 12.8125 244.3125 C7.61995339 241.88931158 4.71626358 237.91514363 2 233 C1.34 232.01 0.68 231.02 0 230 C-0.19019139 226.93869253 -0.26063944 223.96901599 -0.24050903 220.907547 C-0.24222107 219.96804199 -0.24393311 219.02853699 -0.24569702 218.06056213 C-0.24901867 214.88901282 -0.23794209 211.71767273 -0.22705078 208.54614258 C-0.2264384 206.24294638 -0.2267046 203.9397498 -0.2277813 201.63655376 C-0.22823385 195.45424212 -0.21662043 189.27200749 -0.20256042 183.08971405 C-0.19119237 177.29397837 -0.19063537 171.49826168 -0.18920898 165.70251465 C-0.17870352 148.73916618 -0.15078135 131.77583213 -0.125 114.8125 C-0.08375 76.924375 -0.0425 39.03625 0 0 Z M143 48 C141.36320009 50.14626744 139.79159555 52.28908859 138.25 54.5 C137.81373291 55.10513428 137.37746582 55.71026855 136.92797852 56.33374023 C134.76502079 59.35670219 132.74660583 62.37374692 130.94921875 65.62890625 C126.79168748 72.72496448 123.38507903 76.04404891 115.5625 78.1875 C112.72236882 78.88570148 109.87624152 79.47220968 107 80 C106.0203125 80.19335938 105.040625 80.38671875 104.03125 80.5859375 C102.44552046 80.89204352 100.85835536 81.19085345 99.26953125 81.48046875 C91.97768117 83.14968744 84.24751184 86.28855789 79.25 92 C78.8375 92.66 78.425 93.32 78 94 C77.64679688 94.56203125 77.29359375 95.1240625 76.9296875 95.703125 C75.67540631 98.80193735 75.80840418 101.42020911 75.875 104.75 C75.89304687 105.92046875 75.91109375 107.0909375 75.9296875 108.296875 C75.95289063 109.18890625 75.97609375 110.0809375 76 111 C76.66 111 77.32 111 78 111 C78.144375 111.78375 78.28875 112.5675 78.4375 113.375 C78.87798925 115.96421018 78.87798925 115.96421018 80 118 C80.66 118 81.32 118 82 118 C82.24363281 118.55171875 82.48726562 119.1034375 82.73828125 119.671875 C84.26847973 122.49539913 86.13632625 124.77870632 88.1875 127.25 C88.92355469 128.14203125 89.65960937 129.0340625 90.41796875 129.953125 C92.73433399 132.88663695 92.73433399 132.88663695 94.85302734 134.47460938 C98.43521308 137.62135631 100.13261342 140.31509236 100.51049805 145.07128906 C100.66685357 150.05375279 100.46683318 155.02218309 100.25 160 C100.15912866 162.57436563 100.07889091 165.14817701 100.01629639 167.72338867 C99.97541948 169.31786465 99.91765384 170.91203511 99.83966064 172.50512695 C99.63171668 179.19677487 100.94596148 184.56758596 105.375 189.8125 C110.99295114 194.49412595 115.3275219 196.32784354 122.6640625 196.21875 C129.73026154 195.55703236 136.23354286 193.01730233 142.61328125 190.05078125 C145.41250646 188.81838914 148.23954163 187.76439096 151.125 186.75 C152.07632813 186.41484375 153.02765625 186.0796875 154.0078125 185.734375 C160.490686 184.14327811 165.4513916 185.19321294 171.5 187.6875 C172.90681359 188.23756955 174.3143861 188.78570153 175.72265625 189.33203125 C176.43180176 189.60998535 177.14094727 189.88793945 177.87158203 190.17431641 C193.03066911 196.38929606 193.03066911 196.38929606 208.75 194.375 C213.01716475 192.27504677 215.38744303 189.96097347 218 186 C218 185.01 218 184.02 218 183 C218.66 183 219.32 183 220 183 C220.92496322 177.13640932 220.98936194 171.64916045 220.45703125 165.734375 C218.42817465 142.09231485 218.42817465 142.09231485 223.66357422 135.54321289 C225.77417447 133.40695283 227.97303266 131.43460611 230.28955078 129.52441406 C233.34070504 126.80511529 235.71787584 123.55274297 238.1875 120.3125 C238.65639648 119.72267334 239.12529297 119.13284668 239.60839844 118.52514648 C244.76559837 111.980579 244.52020231 106.09314745 244 98 C242.26685187 92.15062507 237.91799411 88.40775179 233 85 C229.33339405 83.48365717 225.61863009 82.60133978 221.75 81.75 C220.73164062 81.50096924 219.71328125 81.25193848 218.6640625 80.99536133 C214.48249447 79.98038194 210.31032611 79.0571816 206.078125 78.27734375 C200.36111245 77.18182485 197.51349608 76.07667273 193.8125 71.4375 C192.38953126 69.32901347 191.13647637 67.27295274 190 65 C189.34 65 188.68 65 188 65 C187.5978125 63.9171875 187.5978125 63.9171875 187.1875 62.8125 C186.00098638 60.00233617 184.72514361 57.51583443 183 55 C182.34 55 181.68 55 181 55 C180.89171875 54.41347656 180.7834375 53.82695313 180.671875 53.22265625 C179.25558892 48.53738428 175.3786232 44.99950182 171.5 42.1875 C160.24568456 36.84170017 151.35686171 38.83984306 143 48 Z " fill="#002562" transform="translate(524,597)"/>
<path d="M0 0 C1.28508027 -0.00327219 2.57016053 -0.00654439 3.89418262 -0.00991574 C5.32107231 -0.00850569 6.74796191 -0.00700369 8.17485142 -0.00541991 C9.69628174 -0.00737299 11.21771155 -0.0097619 12.73914057 -0.01254788 C16.94023041 -0.01895647 21.14130115 -0.01910882 25.34239495 -0.01827047 C29.90533004 -0.0184398 34.46825825 -0.02434403 39.03118992 -0.02951133 C48.0903795 -0.03884572 57.1495642 -0.04276079 66.20875799 -0.0450303 C77.05617954 -0.04799018 87.9035946 -0.05668631 98.75101275 -0.06544458 C124.97147673 -0.08629847 151.19194185 -0.09676014 177.41241219 -0.10557419 C189.8134378 -0.10977922 202.21446293 -0.11500139 214.61548813 -0.12025872 C257.05494742 -0.13814944 299.49440686 -0.15314617 341.93386936 -0.16057891 C344.59871352 -0.16105367 347.26355767 -0.16152955 349.92840183 -0.16200657 C350.91926061 -0.16218375 350.91926061 -0.16218375 351.93013674 -0.16236451 C358.62263833 -0.16356189 365.31513991 -0.16477065 372.0076415 -0.16599704 C373.34950521 -0.16624227 374.69136892 -0.16648613 376.03323263 -0.16672861 C419.1252507 -0.17451765 462.21724152 -0.19689942 505.30924769 -0.22940504 C551.5237274 -0.26425428 597.73819279 -0.28488054 643.95268631 -0.28822315 C648.95111371 -0.2886407 653.9495411 -0.28912026 658.94796848 -0.28964633 C660.17874656 -0.28976952 661.40952464 -0.28989271 662.67759902 -0.29001964 C682.49602409 -0.29235302 702.31441725 -0.30802064 722.13283094 -0.32848817 C742.04862402 -0.34873017 761.96437871 -0.35423116 781.88018018 -0.34471754 C793.71519127 -0.33949631 805.55007465 -0.34540947 817.38506739 -0.36725221 C825.29036561 -0.38074092 833.19557574 -0.37970035 841.10087479 -0.36685025 C845.60534245 -0.35994085 850.10956563 -0.35932769 854.61401165 -0.37641034 C858.7165022 -0.39184177 862.81855232 -0.38866416 866.92103004 -0.37100006 C868.39147599 -0.36786492 869.86195587 -0.37135001 871.33236296 -0.38249181 C888.72002175 -0.50560181 903.66592859 4.58821578 916.39569187 16.65223867 C925.58221428 26.60823048 931.80057419 39.83931181 931.80964929 53.44795305 C931.81292148 54.73303331 931.81619368 56.01811358 931.81956503 57.34213567 C931.81815498 58.76902536 931.81665297 60.19591496 931.8150692 61.62280446 C931.81702228 63.14423478 931.81941118 64.66566459 931.82219717 66.18709362 C931.82860575 70.38818346 931.82875811 74.58925419 931.82791976 78.79034799 C931.82808909 83.35328308 931.83399332 87.91621129 931.83916062 92.47914296 C931.84849501 101.53833255 931.85241008 110.59751724 931.85467959 119.65671103 C931.85763947 130.50413259 931.8663356 141.35154765 931.87509387 152.1989658 C931.89594775 178.41942978 931.90640943 204.63989489 931.91522348 230.86036524 C931.91942851 243.26139085 931.92465068 255.66241597 931.929908 268.06344117 C931.94779873 310.50290047 931.96279546 352.9423599 931.9702282 395.38182241 C931.97070295 398.04666656 931.97117884 400.71151072 931.97165586 403.37635487 C931.97177398 404.03692739 931.9718921 404.69749992 931.9720138 405.37808979 C931.97321118 412.07059137 931.97441994 418.76309296 931.97564633 425.45559454 C931.97589156 426.79745825 931.97613542 428.13932196 931.9763779 429.48118567 C931.98416694 472.57320374 932.00654871 515.66519457 932.03905432 558.75720073 C932.07390357 604.97168045 932.09452983 651.18614583 932.09787244 697.40063936 C932.09828998 702.39906675 932.09876955 707.39749414 932.09929562 712.39592153 C932.09941881 713.62669961 932.099542 714.85747768 932.09966892 716.12555207 C932.1020023 735.94397714 932.11766993 755.76237029 932.13813746 775.58078399 C932.15837946 795.49657707 932.16388045 815.41233176 932.15436683 835.32813323 C932.1491456 847.16314431 932.15505876 858.9980277 932.1769015 870.83302044 C932.19039021 878.73831865 932.18934964 886.64352878 932.17649954 894.54882784 C932.16959014 899.0532955 932.16897698 903.55751867 932.18605963 908.06196469 C932.20149106 912.16445525 932.19831344 916.26650537 932.18064935 920.36898308 C932.17751421 921.83942904 932.1809993 923.30990892 932.1921411 924.780316 C932.31473521 942.09511203 927.27067339 957.11573464 915.21209812 969.77723867 C902.07947594 981.97760681 887.42467306 985.91164219 869.94074917 985.75521356 C868.4059508 985.76013858 866.8711582 985.76725228 865.33637875 985.77632752 C861.14461742 985.79484456 856.95344407 985.78255466 852.76170016 985.76493758 C848.19168136 985.75128859 843.62174266 985.76678954 839.05173123 985.7784884 C831.0507159 985.79497418 823.04987291 985.79295459 815.04885578 985.77866155 C803.1510699 985.75746562 791.25342106 985.76494165 779.35562968 985.77803677 C758.10507535 985.80048156 736.8546006 985.7945049 715.60404619 985.77660067 C697.00853696 985.76103051 678.41305562 985.75518134 659.81754017 985.75894147 C657.96698475 985.75929667 657.96698475 985.75929667 656.07904438 985.75965905 C651.07100322 985.76063398 646.06296207 985.76165479 641.05492094 985.76274415 C594.75287782 985.77268181 548.45087648 985.75548076 502.14884541 985.72437395 C459.74624635 985.69591381 417.34370774 985.68995017 374.94110203 985.70521718 C372.26119399 985.70617661 369.58128594 985.70713363 366.9013779 985.7080899 C366.23877536 985.70832636 365.57617282 985.70856283 364.89349141 985.70880646 C357.55514348 985.71141936 350.21679552 985.71394788 342.87844753 985.71638757 C341.56268128 985.71682538 340.24691502 985.7172632 338.89127706 985.71771428 C304.01796266 985.72895338 269.14465254 985.72160577 234.27133954 985.70850682 C230.51907883 985.70711825 226.76681811 985.70573755 223.0145574 985.7043684 C220.52541894 985.70345902 218.03628049 985.70253635 215.54714205 985.7016003 C196.96196326 985.69480419 178.3768013 985.69746494 159.79162312 985.7045477 C138.66112967 985.71251255 117.53069487 985.70595384 96.4002143 985.68037266 C84.5740491 985.66644598 72.74800199 985.66346961 60.92183487 985.67630737 C53.02277038 985.68376741 45.12380534 985.67668005 37.22476023 985.65774925 C32.72404386 985.6473639 28.22356517 985.64323523 23.72285162 985.6567278 C19.62386755 985.66888003 15.52533737 985.66245595 11.42639234 985.6415677 C9.95724934 985.63726619 8.48806729 985.63956614 7.01895159 985.64950212 C-10.36292452 985.75840957 -25.30804083 980.66577725 -38.03399563 968.60536367 C-47.22051804 958.64937186 -53.43887795 945.41829052 -53.44795305 931.80964929 C-53.45286134 929.88202889 -53.45286134 929.88202889 -53.45786878 927.91546667 C-53.45645874 926.48857698 -53.45495673 925.06168738 -53.45337296 923.63479787 C-53.45532604 922.11336755 -53.45771494 920.59193774 -53.46050093 919.07050872 C-53.46690951 914.86941888 -53.46706186 910.66834814 -53.46622352 906.46725434 C-53.46639285 901.90431925 -53.47229708 897.34139104 -53.47746438 892.77845937 C-53.48679876 883.71926979 -53.49071383 874.66008509 -53.49298334 865.6008913 C-53.49594322 854.75346974 -53.50463935 843.90605469 -53.51339762 833.05863654 C-53.53425151 806.83817256 -53.54471318 780.61770744 -53.55352723 754.3972371 C-53.55773227 741.99621149 -53.56295444 729.59518636 -53.56821176 717.19416116 C-53.58610248 674.75470187 -53.60109921 632.31524243 -53.60853195 589.87577993 C-53.60900671 587.21093577 -53.6094826 584.54609162 -53.60995961 581.88124746 C-53.61007773 581.22067494 -53.61019585 580.56010242 -53.61031755 579.87951255 C-53.61151494 573.18701096 -53.6127237 566.49450937 -53.61395009 559.80200779 C-53.61419532 558.46014408 -53.61443918 557.11828037 -53.61468165 555.77641666 C-53.6224707 512.68439859 -53.64485247 469.59240776 -53.67735808 426.5004016 C-53.71220733 380.28592189 -53.73283358 334.0714565 -53.73617619 287.85696298 C-53.73659374 282.85853558 -53.73707331 277.86010819 -53.73759937 272.86168081 C-53.73772256 271.63090273 -53.73784576 270.40012465 -53.73797268 269.13205027 C-53.74030606 249.31362519 -53.75597369 229.49523204 -53.77644122 209.67681835 C-53.79668322 189.76102526 -53.80218421 169.84527057 -53.79267059 149.92946911 C-53.78744936 138.09445802 -53.79336251 126.25957464 -53.81520526 114.4245819 C-53.82869396 106.51928368 -53.8276534 98.61407355 -53.8148033 90.7087745 C-53.80789389 86.20430684 -53.80728074 81.70008366 -53.82436339 77.19563764 C-53.83979481 73.09314708 -53.8366172 68.99109696 -53.81895311 64.88861925 C-53.81581797 63.4181733 -53.81930305 61.94769342 -53.83044485 60.47728633 C-53.95355486 43.08962754 -48.85973727 28.1437207 -36.79571438 15.41395742 C-26.83972257 6.22743501 -13.60864123 0.0090751 0 0 Z M-25.72930813 27.30848867 C-37.45703147 40.73629967 -38.47438798 54.61345483 -38.44778633 71.68239385 C-38.44913385 73.17351457 -38.45091824 74.66463495 -38.45309857 76.15575469 C-38.45782502 80.25869809 -38.45632804 84.36161929 -38.45382079 88.46456379 C-38.45218757 92.92630323 -38.45632868 97.38803792 -38.45972997 101.84977585 C-38.4648851 109.67149538 -38.46630097 117.49320872 -38.46527386 125.31492978 C-38.46375021 136.94620566 -38.46790784 148.57747467 -38.47314848 160.20874922 C-38.48282556 182.18994545 -38.48563285 204.17113935 -38.48620554 226.15233746 C-38.48666486 243.12525364 -38.48872201 260.09816891 -38.49190617 277.0710848 C-38.49280369 281.95444622 -38.49369351 286.83780763 -38.49458104 291.72116905 C-38.49480209 292.93514153 -38.49502314 294.14911401 -38.49525089 295.39987354 C-38.50140612 329.552249 -38.50535134 363.70462414 -38.50490761 397.85700017 C-38.50489203 399.14494071 -38.50487645 400.43288125 -38.5048604 401.75985028 C-38.50477729 408.28786254 -38.50467825 414.8158748 -38.50457569 421.34388706 C-38.50455575 422.64040442 -38.5045358 423.93692179 -38.50451525 425.27272755 C-38.50447482 427.89460196 -38.50443302 430.51647637 -38.50438986 433.13835078 C-38.50377702 473.93611515 -38.51128485 514.73387121 -38.52496243 555.5316332 C-38.54031799 601.35355569 -38.54892897 647.17547273 -38.5479992 692.99739796 C-38.54792457 697.8820168 -38.54787587 702.76663564 -38.54784489 707.65125448 C-38.54783323 708.85399746 -38.54782158 710.05674045 -38.54780957 711.2959302 C-38.54777878 730.6634075 -38.55416859 750.0308776 -38.56277715 769.39835276 C-38.57124781 788.85783121 -38.57224819 808.3172991 -38.56566783 827.77677837 C-38.56196831 839.34092045 -38.56381654 850.90503049 -38.57361017 862.46916919 C-38.57959905 870.19253462 -38.57832687 877.91587679 -38.57113967 885.63924114 C-38.56724896 890.04050981 -38.56650903 894.44171636 -38.57459702 898.84298071 C-38.58189711 902.85057169 -38.57991443 906.85804904 -38.57067316 910.86563503 C-38.56895833 912.30288087 -38.57055893 913.74013571 -38.57597436 915.17737237 C-38.63039403 930.6630229 -37.219835 945.67541924 -26.13946438 957.53895742 C-15.7886099 966.57929599 -4.47023277 970.24999326 9.1318298 970.25645167 C10.39534692 970.25946764 11.65886403 970.2624836 12.96066955 970.26559097 C14.35279351 970.26389223 15.74491736 970.26210151 17.13704109 970.26022893 C18.62980201 970.26187963 20.1225625 970.26396638 21.61532226 970.26644903 C25.72749435 970.27201183 29.8396456 970.27134398 33.95182024 970.26967144 C38.42185671 970.26894031 42.89188729 970.27396338 47.36192125 970.27824646 C56.23224318 970.28582748 65.10255909 970.28801958 73.97288391 970.28857552 C84.59591124 970.28948905 95.21893299 970.29615627 105.84195792 970.30292234 C131.51770497 970.31898547 157.19345142 970.32488588 182.86920259 970.32967109 C195.01391037 970.33200662 207.15861769 970.33560921 219.3033251 970.33936647 C260.8707476 970.35220194 302.43816982 970.36292138 344.00559425 970.36636907 C346.61514669 970.3665907 349.22469912 970.36681249 351.83425155 970.36703442 C354.45012676 970.36725506 357.06600198 970.36747554 359.6818772 970.36769587 C364.92982519 970.36813842 370.17777318 970.36858554 375.42572117 970.36903554 C376.72690801 970.36914493 378.02809485 970.36925432 379.36871159 970.36936703 C421.56616089 970.37299821 463.76359301 970.38892058 505.96103573 970.41222591 C550.56820199 970.43681709 595.17535844 970.45054157 639.78253168 970.45173699 C644.67843592 970.45190844 649.57434017 970.45212387 654.47024441 970.45237142 C655.67576535 970.45242719 656.8812863 970.45248296 658.12333818 970.45254041 C677.53046302 970.45369145 696.93757024 970.46471785 716.34468913 970.47925847 C735.84801533 970.49361861 755.35131892 970.49686318 774.85464896 970.4888185 C786.44282069 970.48436005 798.03091952 970.4882315 809.61908169 970.504057 C817.36105146 970.51380213 825.10297011 970.51263319 832.8449394 970.50262077 C837.25523444 970.49722544 841.6653894 970.49652934 846.07567287 970.50912949 C850.09382985 970.5205134 854.11173348 970.51789503 858.12988191 970.50446242 C859.5686954 970.50204188 861.00752871 970.50456446 862.44632033 970.5128589 C876.09056491 970.58629755 888.40060289 969.26983158 899.68084812 961.12880117 C900.73272312 960.40692617 901.78459812 959.68505117 902.86834812 958.94130117 C914.63484934 947.17479995 916.78093716 933.65499728 916.81571081 917.73562849 C916.81372334 916.34882169 916.81164389 914.96201502 916.80948257 913.57520849 C916.8108301 912.08408776 916.81261448 910.59296738 916.81479481 909.10184765 C916.81952126 904.99890424 916.81802429 900.89598304 916.81551704 896.79303854 C916.81388381 892.3312991 916.81802492 887.86956441 916.82142621 883.40782648 C916.82658134 875.58610695 916.82799722 867.76439361 916.8269701 859.94267255 C916.82544645 848.31139668 916.82960409 836.68012766 916.83484473 825.04885312 C916.8445218 803.06765689 916.8473291 781.08646298 916.84790178 759.10526487 C916.8483611 742.13234869 916.85041826 725.15943342 916.85360241 708.18651754 C916.85449993 703.30315612 916.85538975 698.4197947 916.85627729 693.53643328 C916.85649834 692.3224608 916.85671938 691.10848832 916.85694713 689.8577288 C916.86310236 655.70535334 916.86704759 621.5529782 916.86660385 587.40060216 C916.86658827 586.11266162 916.86657269 584.82472109 916.86655664 583.49775205 C916.86647353 576.96973979 916.86637449 570.44172753 916.86627194 563.91371527 C916.86625199 562.61719791 916.86623204 561.32068055 916.8662115 559.98487478 C916.86617106 557.36300037 916.86612926 554.74112596 916.8660861 552.11925155 C916.86547326 511.32148718 916.87298109 470.52373113 916.88665867 429.72596914 C916.90201423 383.90404664 916.91062521 338.08212961 916.90969545 292.26020437 C916.90962081 287.37558554 916.90957211 282.4909667 916.90954113 277.60634786 C916.90952948 276.40360487 916.90951782 275.20086188 916.90950581 273.96167213 C916.90947502 254.59419483 916.91586484 235.22672473 916.92447339 215.85924957 C916.93294405 196.39977112 916.93394443 176.94030323 916.92736407 157.48082396 C916.92366455 145.91668188 916.92551279 134.35257184 916.93530641 122.78843315 C916.9412953 115.06506771 916.94002311 107.34172555 916.93283592 99.61836119 C916.9289452 95.21709252 916.92820527 90.81588597 916.93629327 86.41462162 C916.94359336 82.40703065 916.94161068 78.39955329 916.9323694 74.3919673 C916.93065457 72.95472146 916.93225518 71.51746663 916.93767061 70.08022996 C916.99209028 54.59457944 915.58153124 39.58218309 904.50116062 27.71864492 C891.0791125 15.99595482 877.20771039 14.97353914 860.14566612 15.00016671 C858.65655345 14.99881919 857.16744112 14.9970348 855.67832944 14.99485448 C851.5809546 14.99012808 847.483602 14.99162499 843.38622607 14.99413225 C838.93050826 14.9957655 834.4747952 14.99162435 830.01907891 14.98822308 C822.20790211 14.98306796 814.3967315 14.98165207 806.58555317 14.98267919 C794.96990065 14.98420285 783.354255 14.98004517 771.73860382 14.97480456 C749.78660809 14.96512741 727.8346147 14.96232018 705.88261709 14.9617475 C688.93163933 14.96128818 671.98066249 14.95923097 655.02968502 14.95604688 C650.15251786 14.95514935 645.27535069 14.95425954 640.39818352 14.953372 C638.57952785 14.95304043 638.57952785 14.95304043 636.72413166 14.95270216 C602.61462543 14.94654688 568.50511952 14.9426017 534.39561272 14.94304544 C532.46611403 14.94306881 532.46611403 14.94306881 530.49763557 14.94309265 C523.97778782 14.94317575 517.45794008 14.9432748 510.93809233 14.94337735 C508.99575249 14.94340727 508.99575249 14.94340727 507.01417346 14.94343779 C504.39558308 14.94347823 501.77699269 14.94352003 499.15840231 14.94356318 C458.41433445 14.94417599 417.67027492 14.93666894 376.92620945 14.92299062 C331.16324101 14.90763377 285.40027805 14.89902416 239.63730687 14.89995384 C234.75856793 14.90002847 229.87982899 14.90007718 225.00109005 14.90010816 C223.19915143 14.90012564 223.19915143 14.90012564 221.36081 14.90014347 C202.01956551 14.90017426 182.67832825 14.89378536 163.33708591 14.88517589 C143.90223472 14.87670362 124.4673941 14.87570613 105.03254209 14.88228521 C93.48416275 14.8859837 81.93581551 14.88413959 70.38743957 14.87434287 C62.67330476 14.86835131 54.95919324 14.86962918 47.24505951 14.87681337 C42.84988314 14.88070182 38.45476896 14.88145051 34.05959693 14.87335602 C30.05636336 14.86604796 26.05324345 14.86804789 22.05001483 14.87727989 C20.61546779 14.87899261 19.18091172 14.87740111 17.7463739 14.87197868 C1.93031425 14.81622854 -13.59820697 15.97821815 -25.72930813 27.30848867 Z " fill="#002663" transform="translate(61.319151878356934,9.871198832988739)"/>
<path d="M0 0 C2.89062932 1.0425954 4.98918261 2.39910248 7.4609375 4.22265625 C13.65063776 8.7447669 19.68906931 12.64639401 26.6484375 15.84765625 C27.77439331 16.36924316 27.77439331 16.36924316 28.9230957 16.90136719 C31.11945549 17.91279615 33.32018167 18.91385193 35.5234375 19.91015625 C37.14958984 20.64685547 37.14958984 20.64685547 38.80859375 21.3984375 C47.61186447 25.22543137 56.67999991 27.97675039 66.09765625 29.8359375 C78.91963051 32.37864726 87.60055109 35.94332711 95.5234375 46.91015625 C98.60999225 52.33823529 99.2838556 57.90980155 100.09375 64.01953125 C100.44690743 66.96940445 100.44690743 66.96940445 101.5234375 69.91015625 C102.1834375 69.91015625 102.8434375 69.91015625 103.5234375 69.91015625 C103.5234375 70.57015625 103.5234375 71.23015625 103.5234375 71.91015625 C107.73468738 72.15787683 111.4036872 72.32397701 115.3984375 70.84765625 C119.36675176 67.22948737 120.39230885 62.66443001 121.4609375 57.59765625 C122.5234375 53.91015625 122.5234375 53.91015625 124.6484375 52.41015625 C125.2671875 52.24515625 125.8859375 52.08015625 126.5234375 51.91015625 C126.5234375 51.25015625 126.5234375 50.59015625 126.5234375 49.91015625 C129.33571372 48.97273084 131.11090594 48.77544781 134.0234375 48.78515625 C134.796875 48.78257812 135.5703125 48.78 136.3671875 48.77734375 C138.5234375 48.91015625 138.5234375 48.91015625 141.5234375 49.91015625 C141.5234375 50.57015625 141.5234375 51.23015625 141.5234375 51.91015625 C142.5134375 52.24015625 143.5034375 52.57015625 144.5234375 52.91015625 C147.65869107 56.09275309 147.90885217 58.54968008 147.94335938 62.92871094 C147.95927124 64.1438739 147.97518311 65.35903687 147.99157715 66.61102295 C147.99187927 68.57667206 147.99187927 68.57667206 147.9921875 70.58203125 C147.99929382 71.94720776 148.0069935 73.31238129 148.01525879 74.67755127 C148.02869872 77.53902479 148.03027601 80.40022252 148.02441406 83.26171875 C148.01853511 86.91133313 148.04903375 90.55960926 148.08953094 94.2089653 C148.11551559 97.02991746 148.11827545 99.85055265 148.11463928 102.67160797 C148.11713569 104.66564756 148.14176888 106.65962026 148.16687012 108.65350342 C148.09891542 117.61955248 146.4749283 122.53252428 140.53125 129.1171875 C133.50751033 135.10630992 127.34654148 137.18401144 118.1953125 138.08984375 C115.38960551 138.66783975 115.38960551 138.66783975 113.93652344 140.98803711 C112.26449812 144.44561676 111.70555236 147.71854114 111.2421875 151.484375 C111.14256714 152.20824905 111.04294678 152.93212311 110.94030762 153.67793274 C110.62397348 155.98321311 110.32236039 158.2900585 110.0234375 160.59765625 C108.47881512 172.38444752 106.6571375 183.35593509 101.8984375 194.34765625 C100.67333074 197.19510135 99.50391601 199.96872073 98.5234375 202.91015625 C97.8634375 202.91015625 97.2034375 202.91015625 96.5234375 202.91015625 C96.36875 203.98910156 96.36875 203.98910156 96.2109375 205.08984375 C92.2426522 221.36883231 74.97084632 235.25114227 61.5234375 243.91015625 C50.76937828 250.42493416 39.73098969 254.12597768 27.5234375 256.91015625 C26.87625763 257.07436066 26.22907776 257.23856506 25.56228638 257.40774536 C20.18187603 258.71703556 15.17458514 259.20535408 9.6484375 259.17578125 C8.83906738 259.1776947 8.02969727 259.17960815 7.19580078 259.18157959 C5.4983692 259.18293001 3.80092688 259.17931428 2.10351562 259.17089844 C-0.47029178 259.16018236 -3.04340138 259.1708328 -5.6171875 259.18359375 C-7.27864735 259.18227195 -8.94010677 259.17970914 -10.6015625 259.17578125 C-11.35808105 259.17982971 -12.11459961 259.18387817 -12.89404297 259.18804932 C-18.31001399 259.14134447 -23.2357401 258.23292939 -28.4765625 256.91015625 C-29.6728125 256.64203125 -30.8690625 256.37390625 -32.1015625 256.09765625 C-44.41972587 252.8959114 -54.67676414 248.57979916 -65.4765625 241.91015625 C-66.43304688 241.37648438 -67.38953125 240.8428125 -68.375 240.29296875 C-69.06851563 239.83664062 -69.76203125 239.3803125 -70.4765625 238.91015625 C-70.4765625 238.25015625 -70.4765625 237.59015625 -70.4765625 236.91015625 C-71.29060547 236.57951172 -71.29060547 236.57951172 -72.12109375 236.2421875 C-92.01553467 224.99176569 -102.62444618 198.74871842 -108.4765625 177.91015625 C-110.79987885 169.07771391 -111.76750323 160.35858181 -112.2265625 151.25390625 C-112.52585378 147.25088538 -113.30465863 143.73837557 -114.4765625 139.91015625 C-115.1365625 139.91015625 -115.7965625 139.91015625 -116.4765625 139.91015625 C-116.4765625 139.25015625 -116.4765625 138.59015625 -116.4765625 137.91015625 C-117.22679687 137.89597656 -117.97703125 137.88179687 -118.75 137.8671875 C-128.41681853 137.41671863 -135.75061338 135.24947726 -142.4140625 127.97265625 C-146.5815343 122.98602538 -148.85590844 118.32385169 -148.83300781 111.76879883 C-148.83600891 110.57768997 -148.83901001 109.38658112 -148.84210205 108.15937805 C-148.82975525 106.88733017 -148.81740845 105.61528229 -148.8046875 104.3046875 C-148.80281433 102.98852951 -148.80094116 101.67237152 -148.79901123 100.31632996 C-148.79442444 97.53994329 -148.78005829 94.76384932 -148.7578125 91.98754883 C-148.72944853 88.42991133 -148.71859073 84.87250293 -148.7141304 81.31476307 C-148.7089763 77.91553594 -148.69444107 74.51638742 -148.6796875 71.1171875 C-148.67543762 69.83906693 -148.67118774 68.56094635 -148.66680908 67.24409485 C-148.65720154 66.06244247 -148.64759399 64.8807901 -148.63769531 63.66333008 C-148.63086731 62.62219559 -148.62403931 61.5810611 -148.61700439 60.50837708 C-148.4765625 57.91015625 -148.4765625 57.91015625 -147.4765625 54.91015625 C-146.8165625 54.91015625 -146.1565625 54.91015625 -145.4765625 54.91015625 C-145.074375 53.98203125 -145.074375 53.98203125 -144.6640625 53.03515625 C-143.4765625 50.91015625 -143.4765625 50.91015625 -140.4765625 48.91015625 C-138.1015625 48.6796875 -138.1015625 48.6796875 -135.4765625 48.72265625 C-134.6103125 48.72910156 -133.7440625 48.73554688 -132.8515625 48.7421875 C-130.4765625 48.91015625 -130.4765625 48.91015625 -127.4765625 49.91015625 C-127.4765625 50.57015625 -127.4765625 51.23015625 -127.4765625 51.91015625 C-125.9915625 52.40515625 -125.9915625 52.40515625 -124.4765625 52.91015625 C-122.45398082 56.17740359 -121.50918908 58.64448271 -121.0390625 62.47265625 C-120.36524753 66.59041442 -119.66064908 68.20368265 -116.4765625 70.91015625 C-112.17960156 72.21129209 -108.7187758 72.41232759 -104.5390625 70.72265625 C-100.45232046 67.13127688 -100.21346908 63.49168104 -99.7265625 58.22265625 C-98.46961546 48.83940045 -94.49270626 42.91578324 -87.11328125 37.12109375 C-86.57316406 36.72148437 -86.03304687 36.321875 -85.4765625 35.91015625 C-84.7340625 35.33265625 -83.9915625 34.75515625 -83.2265625 34.16015625 C-79.52251596 32.47649873 -75.81196881 31.95057914 -71.8046875 31.33984375 C-69.52378107 31.14638278 -69.52378107 31.14638278 -68.4765625 29.91015625 C-66.81629436 29.58403215 -65.14773947 29.29975927 -63.4765625 29.03515625 C-58.23273982 28.10740301 -53.45341565 26.78126899 -48.4765625 24.91015625 C-47.42339844 24.53375 -46.37023437 24.15734375 -45.28515625 23.76953125 C-30.81754859 18.33832579 -16.56069569 11.12883773 -4.66796875 1.17578125 C-2.4765625 -0.08984375 -2.4765625 -0.08984375 0 0 Z " fill="#002562" transform="translate(378.4765625,267.08984375)"/>
<path d="M0 0 C1.24641266 -0.01293594 2.49282532 -0.02587189 3.77700806 -0.03919983 C5.17118732 -0.04842074 6.56536767 -0.05747894 7.95954895 -0.06639099 C9.41792584 -0.07919662 10.87629986 -0.09233196 12.33467102 -0.10577393 C25.66150034 -0.22179034 38.98908487 -0.27832281 52.31632519 -0.32254124 C62.17100167 -0.35578411 72.02475894 -0.41533102 81.8790409 -0.51005226 C88.80392604 -0.57436934 95.72856065 -0.60807605 102.65373307 -0.61929077 C106.79146614 -0.62685498 110.92809007 -0.64806279 115.06549644 -0.70231819 C118.96058305 -0.75279063 122.85397438 -0.76535244 126.74933624 -0.74906731 C128.1772302 -0.74967067 129.60519514 -0.76393294 131.03279305 -0.79301453 C141.73550941 -0.9995984 141.73550941 -0.9995984 145.44550514 1.85013008 C148.75925955 6.02240643 150.35729402 10.05728249 150.06428528 15.43190002 C148.39473735 21.14908365 144.31815017 25.91451342 140.26350403 30.17408752 C139.60350403 30.17408752 138.94350403 30.17408752 138.26350403 30.17408752 C137.89225403 31.28783752 137.89225403 31.28783752 137.51350403 32.42408752 C136.02672686 35.69499729 135.2088051 37.06562376 132.26350403 39.17408752 C128.69435934 39.74879935 125.15612126 39.65913271 121.54866028 39.60768127 C119.39696685 39.61728663 117.24527415 39.62705735 115.09358215 39.63697815 C111.70523342 39.62837391 108.31707379 39.61152912 104.92878723 39.58937073 C101.65586626 39.57485825 98.3840422 39.59009874 95.11116028 39.60768127 C93.59378014 39.58295998 93.59378014 39.58295998 92.04574585 39.55773926 C86.14487263 39.5947745 86.14487263 39.5947745 81.12702942 42.56690979 C79.21589218 45.24069919 78.58149564 46.43601109 78.63850403 49.67408752 C78.6256134 50.40627502 78.61272278 51.13846252 78.59944153 51.89283752 C79.63458764 55.44886887 81.3769428 56.88228094 84.26350403 59.17408752 C87.25303479 59.89481247 90.16174617 59.84482064 93.22541809 59.80177307 C94.11877365 59.80904419 95.01212921 59.81631531 95.93255615 59.82380676 C98.8818178 59.84238701 101.82986687 59.82633165 104.77912903 59.81080627 C106.83551616 59.81884875 108.89189496 59.8293682 110.94825745 59.84225464 C116.36344547 59.87081952 121.77825104 59.87137805 127.1934967 59.86439514 C135.84619767 59.85707785 144.49877398 59.8885496 153.15137482 59.92684364 C156.16526189 59.93565608 159.17887802 59.93040598 162.19276428 59.92327881 C164.0565142 59.92666616 165.92026351 59.93041628 167.78401184 59.93458557 C169.0281208 59.92604301 169.0281208 59.92604301 170.29736328 59.91732788 C183.25971749 59.98212929 193.56279549 63.81022093 203.02912903 72.73268127 C206.21502268 76.21377136 208.37781661 79.86843458 210.26350403 84.17408752 C210.78048355 85.31825386 210.78048355 85.31825386 211.3079071 86.48553467 C212.30972592 89.30413191 212.50563147 91.35391804 212.49055481 94.33155823 C212.49040375 95.33221817 212.49025269 96.33287811 212.49009705 97.36386108 C212.47977448 98.43174362 212.4694519 99.49962616 212.45881653 100.59986877 C212.45457169 102.25396004 212.45457169 102.25396004 212.45024109 103.94146729 C212.43906384 107.45661866 212.4139634 110.97151341 212.38850403 114.48658752 C212.37847107 116.87265155 212.36934577 119.25871957 212.36116028 121.64479065 C212.33913252 127.48797687 212.30567917 133.33101386 212.26350403 139.17408752 C211.24051208 138.96296326 211.24051208 138.96296326 210.19685364 138.74757385 C208.85119324 138.47336609 208.85119324 138.47336609 207.47834778 138.19361877 C206.59010315 138.01161926 205.70185852 137.82961975 204.78669739 137.6421051 C195.5979025 135.93771035 187.11158368 138.41767562 179.26350403 143.17408752 C175.7201871 142.79316299 174.23467514 141.43452517 172.01350403 138.73658752 C171.23233215 137.81039612 171.23233215 137.81039612 170.43537903 136.86549377 C169.26350403 135.17408752 169.26350403 135.17408752 169.26350403 133.17408752 C168.68213684 132.89436096 168.10076965 132.6146344 167.50178528 132.32643127 C164.72324277 130.89594255 162.16524459 129.20636637 159.55647278 127.49049377 C153.78656234 124.17795575 148.16306381 122.53920237 141.70100403 121.23658752 C130.52340166 118.85754365 119.55628416 116.27282583 109.26350403 111.17408752 C108.02403472 110.57879796 106.78443956 109.98377042 105.54475403 109.38893127 C97.43650412 105.45648801 89.75493523 101.20679259 82.26350403 96.17408752 C81.60221497 95.76029846 80.9409259 95.3465094 80.25959778 94.92018127 C78.89136096 94.0598746 77.56908003 93.12680515 76.26350403 92.17408752 C76.26350403 91.51408752 76.26350403 90.85408752 76.26350403 90.17408752 C67.55858512 88.00752993 60.96842294 88.00752993 52.26350403 90.17408752 C52.26350403 90.83408752 52.26350403 91.49408752 52.26350403 92.17408752 C49.46524565 94.44450905 46.30954978 96.25495161 43.26350403 98.17408752 C42.28510559 98.80959534 41.30670715 99.44510315 40.29866028 100.09986877 C24.39848888 110.22173314 7.55303399 117.26028647 -11.04899597 120.51002502 C-25.14348288 123.04822712 -36.30706145 129.26469691 -45.73649597 140.17408752 C-46.39649597 141.16408752 -47.05649597 142.15408752 -47.73649597 143.17408752 C-51.41118261 142.61731682 -54.46593665 141.43067185 -57.85758972 139.94361877 C-64.44850113 137.24422263 -69.75736333 137.03581054 -76.73649597 138.17408752 C-79.06956 138.50930057 -81.40287117 138.84280085 -83.73649597 139.17408752 C-83.76195433 131.79087565 -83.77940826 124.40767521 -83.79142761 117.02442932 C-83.796441 114.51531043 -83.80325339 112.00619445 -83.81193542 109.49708557 C-83.82413249 105.88029767 -83.82975437 102.26354857 -83.83415222 98.64674377 C-83.83931351 97.53388504 -83.84447479 96.42102631 -83.84979248 95.27444458 C-83.85038559 86.94747214 -83.67865307 79.06441793 -80.73649597 71.17408752 C-80.38071472 69.89791565 -80.38071472 69.89791565 -80.01774597 68.59596252 C-77.11768489 58.67775363 -71.91922742 50.04100064 -66.73649597 41.17408752 C-66.07649597 41.17408752 -65.41649597 41.17408752 -64.73649597 41.17408752 C-64.55087097 40.5011969 -64.36524597 39.82830627 -64.17399597 39.13502502 C-62.12259733 34.90958977 -59.07025287 32.06123822 -55.73649597 28.79908752 C-55.05442078 28.12861389 -54.37234558 27.45814026 -53.66960144 26.76734924 C-48.68831675 21.94618148 -43.74901115 17.67150832 -37.73649597 14.17408752 C-37.12580261 13.81621155 -36.51510925 13.45833557 -35.88591003 13.08961487 C-27.25114887 8.09281817 -19.0245019 4.21750716 -9.29899597 1.83033752 C-2.22751769 0.01934918 -2.22751769 0.01934918 0 0 Z " fill="#002562" transform="translate(313.7364959716797,156.82591247558594)"/>
<path d="M0 0 C4.78469668 2.66500569 7.33855777 5.80029307 9 11 C9.17710794 13.80008547 9.2570765 16.49583639 9.23046875 19.29296875 C9.23001053 20.08020828 9.22955231 20.86744781 9.2290802 21.67854309 C9.2260697 23.3351086 9.21821955 24.99167159 9.20581055 26.64819336 C9.18748636 29.18939172 9.18530151 31.73022665 9.18554688 34.27148438 C9.1806337 35.88281566 9.17480626 37.49414448 9.16796875 39.10546875 C9.16685593 39.86691696 9.1657431 40.62836517 9.16459656 41.41288757 C9.11610031 46.76779938 9.11610031 46.76779938 8 49 C72.02 49 136.04 49 202 49 C202 35.8 202 22.6 202 9 C207 2 207 2 210 0 C214.56173038 -0.7554458 219.08973373 -1.02502092 223.2421875 1.203125 C226.55115061 3.92169221 228.15416931 5.77400207 229 10 C229.08231525 11.34273815 229.11789309 12.68892787 229.11352539 14.03417969 C229.11344986 14.81468689 229.11337433 15.59519409 229.11329651 16.39935303 C229.10813522 17.23178528 229.10297394 18.06421753 229.09765625 18.921875 C229.09553383 20.21185394 229.09553383 20.21185394 229.09336853 21.52789307 C229.08778097 24.26863109 229.07523075 27.00928676 229.0625 29.75 C229.05748339 31.6106759 229.05292077 33.47135309 229.04882812 35.33203125 C229.03781561 39.88805246 229.02055951 44.44401228 229 49 C230.2377417 48.97462158 231.4754834 48.94924316 232.75073242 48.9230957 C234.38980395 48.90257066 236.02888333 48.88266513 237.66796875 48.86328125 C238.48197144 48.84495239 239.29597412 48.82662354 240.13464355 48.80773926 C248.30045145 48.735329 252.78516551 51.14236934 258.8125 56.5 C259.8953125 57.7375 259.8953125 57.7375 261 59 C261.69706055 59.70406982 262.39412109 60.40813965 263.11230469 61.13354492 C265.57984076 64.88048504 265.50800822 68.03272809 265.390625 72.36328125 C265.38496521 73.15526413 265.37930542 73.94724701 265.37347412 74.76322937 C265.35117308 77.28028094 265.30099139 79.79588243 265.25 82.3125 C265.22992675 84.02406791 265.21167742 85.73565824 265.1953125 87.44726562 C265.15132925 91.63206485 265.08234769 95.815787 265 100 C224.52274286 100.15029883 184.04547 100.29532778 143.56816871 100.4332476 C138.79398083 100.4495194 134.0197931 100.46583503 129.24560547 100.48217773 C128.29511459 100.48543066 127.34462372 100.48868358 126.36533009 100.49203508 C110.95693786 100.54487281 95.54856057 100.60126374 80.14018585 100.6589582 C64.34035473 100.71803969 48.54051365 100.77332505 32.74065673 100.82505554 C22.98425053 100.85711968 13.22786438 100.8921767 3.47148274 100.93101191 C-3.21066554 100.95732705 -9.89281983 100.97996882 -16.57499085 100.99967117 C-20.43541194 101.01116367 -24.29580914 101.02432429 -28.15620804 101.04183006 C-32.33312777 101.06072906 -36.51003162 101.07191756 -40.6869812 101.08229065 C-41.91847708 101.08909444 -43.14997295 101.09589823 -44.41878688 101.10290819 C-45.53048877 101.10440054 -46.64219066 101.10589289 -47.78758049 101.10743046 C-49.23545411 101.11255668 -49.23545411 101.11255668 -50.7125777 101.11778647 C-53 101 -53 101 -55 100 C-55.1498064 95.48352897 -55.25788711 90.96842331 -55.32958984 86.45019531 C-55.35951864 84.9177121 -55.40027879 83.38539655 -55.45263672 81.85351562 C-55.77143693 72.2770073 -55.51691271 64.66301803 -49 57 C-42.81223162 50.45713013 -36.31758605 48.55511604 -27.625 48.3125 C-26.79355469 48.27833984 -25.96210937 48.24417969 -25.10546875 48.20898438 C-23.07076649 48.12712854 -21.03540792 48.06187299 -19 48 C-19.01571045 46.35801636 -19.01571045 46.35801636 -19.03173828 44.68286133 C-19.06801444 40.6107919 -19.09092817 36.53873669 -19.10986328 32.46655273 C-19.11990351 30.70611161 -19.13353844 28.94568709 -19.15087891 27.18530273 C-19.17521436 24.65083715 -19.18650296 22.11659261 -19.1953125 19.58203125 C-19.20563507 18.79850784 -19.21595764 18.01498444 -19.22659302 17.2077179 C-19.22763255 12.11272475 -18.74995417 8.29184339 -15.625 4.19921875 C-10.83356701 -0.25819608 -6.45263202 -1.56145422 0 0 Z " fill="#002663" transform="translate(579,475)"/>
<path d="M0 0 C4.15368602 1.52736437 5.7312583 4.12847196 8.125 7.75 C8.90619094 8.91887958 9.68879776 10.08681387 10.47265625 11.25390625 C10.88016113 11.86379395 11.28766602 12.47368164 11.70751953 13.10205078 C14.34194077 16.97057944 17.12570941 20.73648411 19.90087891 24.50488281 C23 28.78080734 23 28.78080734 23 31 C23.58007812 31.12117187 24.16015625 31.24234375 24.7578125 31.3671875 C25.53898438 31.53476562 26.32015625 31.70234375 27.125 31.875 C27.89070312 32.03742187 28.65640625 32.19984375 29.4453125 32.3671875 C32.36001819 33.08917882 35.15165878 34.0482788 38 35 C41.01187226 35.88675845 44.0363628 36.72590588 47.0625 37.5625 C47.85205078 37.78357422 48.64160156 38.00464844 49.45507812 38.23242188 C53.28477276 39.29497755 57.08379066 40.29870698 61 41 C60.56833385 45.87423027 58.14947376 48.62130283 55 52.125 C54.00182156 53.26884878 53.00443913 54.41339264 52.0078125 55.55859375 C51.25419434 56.41686768 51.25419434 56.41686768 50.48535156 57.29248047 C48.23109712 59.88390973 46.05212465 62.53084789 43.875 65.1875 C43.15054688 66.06792969 42.42609375 66.94835937 41.6796875 67.85546875 C38.47961134 71.94114738 38.87089348 75.50577772 38.90234375 80.5078125 C38.9037587 81.34843231 38.90517365 82.18905212 38.90663147 83.05514526 C38.91223763 85.74513275 38.92479114 88.43503759 38.9375 91.125 C38.94251421 92.94661338 38.94707725 94.76822807 38.95117188 96.58984375 C38.96220906 101.05992777 38.9794778 105.52994986 39 110 C34.11780272 109.07884079 29.48260225 107.67986205 24.75 106.1875 C23.94175781 105.93935547 23.13351562 105.69121094 22.30078125 105.43554688 C17.3685189 103.88484359 12.72035199 102.06639441 8.06542969 99.81176758 C3.62630759 98.06707716 -0.75827324 98.18949914 -5.21484375 99.80078125 C-6.71713141 100.48459936 -8.20809058 101.1937818 -9.6875 101.92578125 C-12.84759596 103.39373123 -16.09862674 104.26349523 -19.4453125 105.20703125 C-22.96524515 106.29960973 -26.30634897 107.7434631 -29.67578125 109.23046875 C-32.24095353 110.07977789 -34.31557882 110.13778445 -37 110 C-37.02817467 107.58323902 -37.04762376 105.16685752 -37.0625 102.75 C-37.07087891 101.99509277 -37.07925781 101.24018555 -37.08789062 100.46240234 C-37.10527915 96.20308223 -36.94648127 92.04166636 -36.49609375 87.8046875 C-35.14599589 76.9379875 -35.14599589 76.9379875 -39.1875 67.125 C-40.75058579 65.37899992 -42.36020387 63.67416311 -44 62 C-45.62250219 60.152891 -47.21637589 58.28354054 -48.80786133 56.40966797 C-49.87707471 55.15672608 -50.95736447 53.91313498 -52.04956055 52.68017578 C-54.29372574 50.13502159 -55.91518153 48.2544554 -57 45 C-57.66 45 -58.32 45 -59 45 C-59 43.68 -59 42.36 -59 41 C-58.00484375 40.78085937 -57.0096875 40.56171875 -55.984375 40.3359375 C-47.66025646 38.46495242 -39.39568863 36.3911176 -31.1875 34.0625 C-30.33446289 33.8341748 -29.48142578 33.60584961 -28.60253906 33.37060547 C-23.55309885 31.89709253 -20.90287621 30.61821215 -18 26 C-17.44699219 25.24460937 -16.89398437 24.48921875 -16.32421875 23.7109375 C-12.51141631 18.26927674 -8.92144812 12.73978385 -5.48046875 7.0546875 C-4.74763672 6.03761719 -4.74763672 6.03761719 -4 5 C-3.34 5 -2.68 5 -2 5 C-1.34 3.35 -0.68 1.7 0 0 Z " fill="#002563" transform="translate(683,660)"/>
<path d="M0 0 C4.51476145 -0.21498864 7.76870666 0.47369265 12 2 C14.22069681 2.55583908 16.45072903 3.07535832 18.6875 3.5625 C19.80511719 3.81128906 20.92273438 4.06007813 22.07421875 4.31640625 C45.02727136 8.31320646 72.65294953 8.30978286 95 1 C95.33 0.67 95.66 0.34 96 0 C97.66617115 -0.04063832 99.33388095 -0.042721 101 0 C102.37724384 19.53008279 102.37724384 19.53008279 97.5 26.3125 C95.28125 28.8046875 95.28125 28.8046875 93 31 C92.3296875 31.68320312 91.659375 32.36640625 90.96875 33.0703125 C86.75907139 37.06282515 82.3211822 39.74953955 77 42 C75.205625 42.804375 75.205625 42.804375 73.375 43.625 C58.46446504 49.01754525 40.31813117 48.03231976 25.48046875 42.74609375 C18.84089351 39.6180782 12.90753714 35.50239012 8 30 C8 29.34 8 28.68 8 28 C7.34 28 6.68 28 6 28 C1.12027472 22.96857342 -0.34342147 17.66827542 -0.41748047 10.85888672 C-0.35544322 7.23149012 -0.21305421 3.62192151 0 0 Z " fill="#002562" transform="translate(327,541)"/>
<path d="M0 0 C4.98014611 0.47815288 7.74739945 1.89862189 11.6875 4.9375 C12.61949219 5.64777344 13.55148437 6.35804688 14.51171875 7.08984375 C15.33285156 7.72019531 16.15398437 8.35054687 17 9 C17.99 9.66 18.98 10.32 20 11 C21.0077732 17.27058878 19.46337454 21.20861477 16.03515625 26.4765625 C10.44954779 33.40228815 2.74664994 38.70397364 -5 43 C-5.94552734 43.58974609 -5.94552734 43.58974609 -6.91015625 44.19140625 C-9.76673684 45.29666266 -11.1239617 45.03783645 -14 44 C-16.4296875 41.890625 -16.4296875 41.890625 -18.875 39.25 C-21.81201514 36.1678928 -24.56987423 33.41090625 -28.125 31.0625 C-29.07375 30.381875 -30.0225 29.70125 -31 29 C-31 28.01 -31 27.02 -31 26 C-29.906875 25.505 -28.81375 25.01 -27.6875 24.5 C-18.18445785 19.70643007 -10.65822538 13.24053306 -4 5 C-3.175 3.989375 -2.35 2.97875 -1.5 1.9375 C-1.005 1.298125 -0.51 0.65875 0 0 Z " fill="#002562" transform="translate(444,576)"/>
<path d="M0 0 C1.5703125 1.87109375 1.5703125 1.87109375 3.125 4.4375 C7.59225593 11.22039615 13.44391356 17.66489978 21 21 C21 21.66 21 22.32 21 23 C23.97 23.99 26.94 24.98 30 26 C28.92556365 30.29774539 28.77004098 30.53821579 25.375 32.8125 C20.77833489 36.06743583 15.56822415 39.86355171 13 45 C4.40645325 45.73435763 -3.39281955 38.66425603 -9.875 33.6875 C-15.88939393 28.59438606 -19.53944402 23.07418247 -22.1875 15.6875 C-22 13 -22 13 -19.875 10.375 C-18.92625 9.59125 -17.9775 8.8075 -17 8 C-16.236875 7.319375 -15.47375 6.63875 -14.6875 5.9375 C-9.97284528 2.53856287 -5.88826188 0 0 0 Z " fill="#002562" transform="translate(313,576)"/>
</svg>
